<svg xmlns="http://www.w3.org/2000/svg" viewBox="0 0 800 1000" width="800" height="1000" role="img">
<defs>
<linearGradient id="bg3" x1="0" y1="0" x2=".6" y2="1">
<stop offset="0" stop-color="#FFFFFF"/><stop offset=".55" stop-color="#F6F3EF"/><stop offset="1" stop-color="#EFE7E0"/>
</linearGradient>
<radialGradient id="v4" cx=".5" cy=".42" r=".72">
<stop offset=".55" stop-color="#fff" stop-opacity="0"/><stop offset="1" stop-color="#141110" stop-opacity=".07"/>
</radialGradient>
<filter id="blurWide" x="-60%" y="-200%" width="220%" height="500%"><feGaussianBlur stdDeviation="13"/></filter>
<filter id="blurTight" x="-60%" y="-300%" width="220%" height="700%"><feGaussianBlur stdDeviation="4"/></filter>
<linearGradient id="reflGrad" x1="0" y1="205" x2="0" y2="335" gradientUnits="userSpaceOnUse">
<stop offset="0" stop-color="#fff" stop-opacity=".5"/>
<stop offset="1" stop-color="#fff" stop-opacity="0"/>
</linearGradient>
<mask id="reflFade" maskUnits="userSpaceOnUse" x="-260" y="205" width="520" height="130">
<rect x="-260" y="205" width="520" height="130" fill="url(#reflGrad)"/>
</mask>
<linearGradient id="g1" x1="0" y1="0" x2="1" y2="0">
<stop offset="0" stop-color="#98737a"/>
<stop offset=".07" stop-color="#be9098"/>
<stop offset=".26" stop-color="#D9A5AE"/>
<stop offset=".37" stop-color="#f4e6e8"/>
<stop offset=".44" stop-color="#e7c7cd"/>
<stop offset=".64" stop-color="#D9A5AE"/>
<stop offset=".88" stop-color="#a07980"/>
<stop offset="1" stop-color="#c2939c"/>
</linearGradient><linearGradient id="g2" x1="0" y1="0" x2="1" y2="0">
<stop offset="0" stop-color="#7c4a46"/>
<stop offset=".07" stop-color="#995c55"/>
<stop offset=".26" stop-color="#ae6860"/>
<stop offset=".37" stop-color="#e8d5d2"/>
<stop offset=".44" stop-color="#cda19c"/>
<stop offset=".64" stop-color="#ae6860"/>
<stop offset=".88" stop-color="#824e49"/>
<stop offset="1" stop-color="#9c5e57"/>
</linearGradient>
</defs>
<rect width="800" height="1000" fill="url(#bg3)"/>
<circle cx="400" cy="470" r="300" fill="#fff" opacity=".5"/>
<path d="M0 1000 L0 790 Q 400 670 800 790 L800 1000 Z" fill="#EFE7E0" opacity=".45"/>
<g transform="translate(400,520) rotate(0) scale(1)">
<g mask="url(#reflFade)" opacity=".5">
<g transform="translate(0,412) scale(1,-1)">
<ellipse cx="8.4" cy="202" rx="120" ry="19.2" fill="#4A372F" opacity=".22" filter="url(#blurWide)"/>
<ellipse cx="0" cy="200" rx="69.6" ry="8.064" fill="#3A2A24" opacity=".3" filter="url(#blurTight)"/>
<rect x="-78" y="10" width="156" height="185" rx="26" fill="url(#g1)"/>
<rect x="-52" y="32" width="16" height="140" rx="8" fill="#fff" opacity=".4"/>
<rect x="-26" y="-14" width="52" height="30" fill="#a98088"/>
<rect x="-42" y="-160" width="84" height="150" rx="14" fill="url(#g2)"/>
<rect x="-26" y="-142" width="11" height="110" rx="5.5" fill="#fff" opacity=".4"/>
<rect x="-78" y="120" width="156" height="34" fill="#fff" opacity=".85"/></g>
</g>
<ellipse cx="8.4" cy="202" rx="120" ry="19.2" fill="#4A372F" opacity=".22" filter="url(#blurWide)"/>
<ellipse cx="0" cy="200" rx="69.6" ry="8.064" fill="#3A2A24" opacity=".3" filter="url(#blurTight)"/>
<rect x="-78" y="10" width="156" height="185" rx="26" fill="url(#g1)"/>
<rect x="-52" y="32" width="16" height="140" rx="8" fill="#fff" opacity=".4"/>
<rect x="-26" y="-14" width="52" height="30" fill="#a98088"/>
<rect x="-42" y="-160" width="84" height="150" rx="14" fill="url(#g2)"/>
<rect x="-26" y="-142" width="11" height="110" rx="5.5" fill="#fff" opacity=".4"/>
<rect x="-78" y="120" width="156" height="34" fill="#fff" opacity=".85"/>
</g>
<circle cx="112" cy="908" r="19" fill="#D9A5AE" stroke="#fff" stroke-width="3"/><circle cx="164" cy="908" r="19" fill="#E3C1B3" stroke="#fff" stroke-width="3"/><circle cx="216" cy="908" r="19" fill="#F1E6DF" stroke="#fff" stroke-width="3"/><circle cx="268" cy="908" r="19" fill="#9E1F36" stroke="#fff" stroke-width="3"/><circle cx="320" cy="908" r="19" fill="#5E2433" stroke="#fff" stroke-width="3"/>
<rect width="800" height="1000" fill="url(#v4)"/>
</svg>