<svg xmlns="http://www.w3.org/2000/svg" viewBox="0 0 800 1000" width="800" height="1000" role="img">
<defs>
<linearGradient id="bg95" x1="0" y1="0" x2=".6" y2="1">
<stop offset="0" stop-color="#F5E7E8"/><stop offset=".55" stop-color="#E8C8CF"/><stop offset="1" stop-color="#ceacb4"/>
</linearGradient>
<radialGradient id="v96" cx=".5" cy=".42" r=".72">
<stop offset=".55" stop-color="#fff" stop-opacity="0"/><stop offset="1" stop-color="#572B3A" stop-opacity=".16"/>
</radialGradient>
<linearGradient id="g94" x1="0" y1="0" x2="1" y2="0">
<stop offset="0" stop-color="#b99c87"/>
<stop offset=".18" stop-color="#E6C3A8"/>
<stop offset=".42" stop-color="#f4e4d8"/>
<stop offset=".58" stop-color="#E6C3A8"/>
<stop offset="1" stop-color="#a58a79"/>
</linearGradient>
</defs>
<rect width="800" height="1000" fill="url(#bg95)"/>
<circle cx="400" cy="430" r="250" fill="#fff" opacity=".34"/>
<path d="M0 1000 L0 790 Q 400 670 800 790 L800 1000 Z" fill="#E8C8CF" opacity=".45"/>
<g transform="translate(400,545) rotate(-14) scale(1.34)"><ellipse cx="0" cy="200" rx="95" ry="15.200000000000001" fill="#572B3A" opacity=".13"/>
<rect x="-84" y="-20" width="168" height="215" rx="18" fill="url(#g94)"/>
<rect x="-58" y="4" width="16" height="160" rx="8" fill="#fff" opacity=".4"/>
<rect x="-34" y="-46" width="68" height="28" fill="#a98e7c"/>
<rect x="-30" y="-118" width="60" height="74" rx="10" fill="#3F1E2A"/>
<path d="M-30 -118 h60 v-16 h-34 a10 10 0 0 0 -10 10 v6 Z" fill="#572B3A"/>
<rect x="-84" y="96" width="168" height="46" fill="#fff" opacity=".85"/></g>
<circle cx="112" cy="908" r="19" fill="#F1D6C6" stroke="#fff" stroke-width="3"/><circle cx="164" cy="908" r="19" fill="#E6C3A8" stroke="#fff" stroke-width="3"/><circle cx="216" cy="908" r="19" fill="#CFA07C" stroke="#fff" stroke-width="3"/><circle cx="268" cy="908" r="19" fill="#A87555" stroke="#fff" stroke-width="3"/><circle cx="320" cy="908" r="19" fill="#7A4E36" stroke="#fff" stroke-width="3"/>
<rect width="800" height="1000" fill="url(#v96)"/>
</svg>