<svg xmlns="http://www.w3.org/2000/svg" viewBox="0 0 800 1000" width="800" height="1000" role="img">
<defs>
<linearGradient id="bg15" x1="0" y1="0" x2=".6" y2="1">
<stop offset="0" stop-color="#F6F3EF"/><stop offset=".55" stop-color="#EFE7E0"/><stop offset="1" stop-color="#e6d3ca"/>
</linearGradient>
<radialGradient id="v16" cx=".5" cy=".42" r=".72">
<stop offset=".55" stop-color="#fff" stop-opacity="0"/><stop offset="1" stop-color="#141110" stop-opacity=".07"/>
</radialGradient>
<linearGradient id="g13" x1="0" y1="0" x2="1" y2="0">
<stop offset="0" stop-color="#bfb8b5"/>
<stop offset=".18" stop-color="#EDE7E2"/>
<stop offset=".42" stop-color="#f7f4f2"/>
<stop offset=".58" stop-color="#EDE7E2"/>
<stop offset="1" stop-color="#a9a3a0"/>
</linearGradient><linearGradient id="g14" x1="0" y1="0" x2="1" y2="0">
<stop offset="0" stop-color="#c0b8b3"/>
<stop offset=".18" stop-color="#EFE7E0"/>
<stop offset=".42" stop-color="#f8f4f1"/>
<stop offset=".58" stop-color="#EFE7E0"/>
<stop offset="1" stop-color="#aba39f"/>
</linearGradient>
</defs>
<rect width="800" height="1000" fill="url(#bg15)"/>
<circle cx="400" cy="430" r="250" fill="#fff" opacity=".34"/>
<path d="M0 1000 L0 790 Q 400 670 800 790 L800 1000 Z" fill="#EFE7E0" opacity=".45"/>
<g transform="translate(400,545) rotate(-14) scale(1.34)"><ellipse cx="0" cy="190" rx="130" ry="20.8" fill="#A8432A" opacity=".13"/>
<rect x="-104" y="0" width="208" height="175" rx="20" fill="url(#g13)"/>
<ellipse cx="0" cy="175" rx="104" ry="18" fill="#c3bcb9"/>
<ellipse cx="0" cy="0" rx="104" ry="20" fill="#f5f2ef"/>
<rect x="-76" y="24" width="17" height="120" rx="8.5" fill="#fff" opacity=".4"/>
<rect x="-112" y="-70" width="224" height="76" rx="16" fill="url(#g14)"/>
<ellipse cx="0" cy="-70" rx="112" ry="19" fill="#f7f3f0"/>
<rect x="-84" y="-58" width="15" height="48" rx="7.5" fill="#fff" opacity=".4"/></g>
<rect width="800" height="1000" fill="url(#v16)"/>
</svg>