<svg xmlns="http://www.w3.org/2000/svg" viewBox="0 0 800 1000" width="800" height="1000" role="img">
<defs>
<linearGradient id="bg15" x1="0" y1="0" x2=".6" y2="1">
<stop offset="0" stop-color="#FFFFFF"/><stop offset=".55" stop-color="#F1DFDA"/><stop offset="1" stop-color="#F7EBE8"/>
</linearGradient>
<radialGradient id="v16" cx=".5" cy=".42" r=".72">
<stop offset=".55" stop-color="#fff" stop-opacity="0"/><stop offset="1" stop-color="#2A1215" stop-opacity=".07"/>
</radialGradient>
<filter id="blurWide" x="-60%" y="-200%" width="220%" height="500%"><feGaussianBlur stdDeviation="13"/></filter>
<filter id="blurTight" x="-60%" y="-300%" width="220%" height="700%"><feGaussianBlur stdDeviation="4"/></filter>
<linearGradient id="reflGrad" x1="0" y1="205" x2="0" y2="335" gradientUnits="userSpaceOnUse">
<stop offset="0" stop-color="#fff" stop-opacity=".5"/>
<stop offset="1" stop-color="#fff" stop-opacity="0"/>
</linearGradient>
<mask id="reflFade" maskUnits="userSpaceOnUse" x="-260" y="205" width="520" height="130">
<rect x="-260" y="205" width="520" height="130" fill="url(#reflGrad)"/>
</mask>
<linearGradient id="g13" x1="0" y1="0" x2="1" y2="0">
<stop offset="0" stop-color="#a59e9c"/>
<stop offset=".07" stop-color="#cfc9c5"/>
<stop offset=".26" stop-color="#EDE7E2"/>
<stop offset=".37" stop-color="#faf8f7"/>
<stop offset=".44" stop-color="#f4f0ed"/>
<stop offset=".64" stop-color="#EDE7E2"/>
<stop offset=".88" stop-color="#aea7a4"/>
<stop offset="1" stop-color="#d4cdc9"/>
</linearGradient><linearGradient id="g14" x1="0" y1="0" x2="1" y2="0">
<stop offset="0" stop-color="#aca1a0"/>
<stop offset=".07" stop-color="#d8ccca"/>
<stop offset=".26" stop-color="#F7EBE8"/>
<stop offset=".37" stop-color="#fdf9f9"/>
<stop offset=".44" stop-color="#faf3f1"/>
<stop offset=".64" stop-color="#F7EBE8"/>
<stop offset=".88" stop-color="#b5aaa8"/>
<stop offset="1" stop-color="#dcd1cf"/>
</linearGradient>
</defs>
<radialGradient id="halo" cx=".5" cy=".5" r=".5">
<stop offset="0" stop-color="#FDF4F3" stop-opacity=".22"/>
<stop offset=".55" stop-color="#F9E9E7" stop-opacity=".10"/>
<stop offset="1" stop-color="#F9E9E7" stop-opacity="0"/>
</radialGradient>
<linearGradient id="suelo" x1="0" y1="670" x2="0" y2="1000" gradientUnits="userSpaceOnUse">
<stop offset="0" stop-color="#CEB7B0" stop-opacity="0"/>
<stop offset="1" stop-color="#CEB7B0" stop-opacity=".13"/>
</linearGradient>
<circle cx="400" cy="430" r="320" fill="url(#halo)"/>
<path d="M0 1000 L0 790 Q 400 670 800 790 L800 1000 Z" fill="url(#suelo)"/>
<g transform="translate(400,545) rotate(-14) scale(1.34)">
<g mask="url(#reflFade)" opacity=".5">
<g transform="translate(0,412) scale(1,-1)">
<ellipse cx="9.100000000000001" cy="192" rx="130" ry="20.8" fill="#4A372F" opacity=".22" filter="url(#blurWide)"/>
<ellipse cx="0" cy="190" rx="75.39999999999999" ry="8.736" fill="#3A2A24" opacity=".3" filter="url(#blurTight)"/>
<rect x="-104" y="0" width="208" height="175" rx="20" fill="url(#g13)"/>
<ellipse cx="0" cy="175" rx="104" ry="18" fill="#c3bcb9"/>
<ellipse cx="0" cy="0" rx="104" ry="20" fill="#f5f2ef"/>
<rect x="-76" y="24" width="17" height="120" rx="8.5" fill="#fff" opacity=".4"/>
<rect x="-112" y="-70" width="224" height="76" rx="16" fill="url(#g14)"/>
<ellipse cx="0" cy="-70" rx="112" ry="19" fill="#fbf5f4"/>
<rect x="-84" y="-58" width="15" height="48" rx="7.5" fill="#fff" opacity=".4"/></g>
</g>
<ellipse cx="9.100000000000001" cy="192" rx="130" ry="20.8" fill="#4A372F" opacity=".22" filter="url(#blurWide)"/>
<ellipse cx="0" cy="190" rx="75.39999999999999" ry="8.736" fill="#3A2A24" opacity=".3" filter="url(#blurTight)"/>
<rect x="-104" y="0" width="208" height="175" rx="20" fill="url(#g13)"/>
<ellipse cx="0" cy="175" rx="104" ry="18" fill="#c3bcb9"/>
<ellipse cx="0" cy="0" rx="104" ry="20" fill="#f5f2ef"/>
<rect x="-76" y="24" width="17" height="120" rx="8.5" fill="#fff" opacity=".4"/>
<rect x="-112" y="-70" width="224" height="76" rx="16" fill="url(#g14)"/>
<ellipse cx="0" cy="-70" rx="112" ry="19" fill="#fbf5f4"/>
<rect x="-84" y="-58" width="15" height="48" rx="7.5" fill="#fff" opacity=".4"/>
</g>
</svg>