<svg xmlns="http://www.w3.org/2000/svg" viewBox="0 0 800 1000" width="800" height="1000" role="img">
<defs>
<linearGradient id="bg19" x1="0" y1="0" x2=".6" y2="1">
<stop offset="0" stop-color="#FFFFFF"/><stop offset=".55" stop-color="#F6F3EF"/><stop offset="1" stop-color="#EFE7E0"/>
</linearGradient>
<radialGradient id="v20" cx=".5" cy=".42" r=".72">
<stop offset=".55" stop-color="#fff" stop-opacity="0"/><stop offset="1" stop-color="#141110" stop-opacity=".07"/>
</radialGradient>
<linearGradient id="g17" x1="0" y1="0" x2="1" y2="0">
<stop offset="0" stop-color="#cdcbcb"/>
<stop offset=".18" stop-color="#FFFFFF"/>
<stop offset=".42" stop-color="#ffffff"/>
<stop offset=".58" stop-color="#FFFFFF"/>
<stop offset="1" stop-color="#b6b3b4"/>
</linearGradient><linearGradient id="g18" x1="0" y1="0" x2="1" y2="0">
<stop offset="0" stop-color="#c0b8b3"/>
<stop offset=".18" stop-color="#EFE7E0"/>
<stop offset=".42" stop-color="#f8f4f1"/>
<stop offset=".58" stop-color="#EFE7E0"/>
<stop offset="1" stop-color="#aba39f"/>
</linearGradient>
</defs>
<rect width="800" height="1000" fill="url(#bg19)"/>
<circle cx="400" cy="470" r="300" fill="#fff" opacity=".5"/>
<path d="M0 1000 L0 790 Q 400 670 800 790 L800 1000 Z" fill="#EFE7E0" opacity=".45"/>
<g transform="translate(400,520) rotate(0) scale(1)"><ellipse cx="0" cy="200" rx="160" ry="25.6" fill="#A8432A" opacity=".13"/>
<path d="M-150 190 L-150 30 A150 150 0 0 1 150 30 L150 190 Z" fill="url(#g17)"/>
<path d="M-96 190 L-96 46 A96 96 0 0 1 96 46 L96 190 Z" fill="#8A3621"/>
<rect x="-67" y="60" width="18" height="7" rx="3.5" fill="#EFE7E0" opacity=".9"/><rect x="-29" y="60" width="18" height="7" rx="3.5" fill="#EFE7E0" opacity=".9"/><rect x="11" y="60" width="18" height="7" rx="3.5" fill="#EFE7E0" opacity=".9"/><rect x="49" y="60" width="18" height="7" rx="3.5" fill="#EFE7E0" opacity=".9"/><rect x="-67" y="92" width="18" height="7" rx="3.5" fill="#EFE7E0" opacity=".6"/><rect x="-29" y="92" width="18" height="7" rx="3.5" fill="#EFE7E0" opacity=".6"/><rect x="11" y="92" width="18" height="7" rx="3.5" fill="#EFE7E0" opacity=".6"/><rect x="49" y="92" width="18" height="7" rx="3.5" fill="#EFE7E0" opacity=".6"/>
<rect x="-150" y="184" width="300" height="20" rx="8" fill="url(#g18)"/>
<rect x="-40" y="140" width="80" height="22" rx="11" fill="#A8432A"/></g>
<rect width="800" height="1000" fill="url(#v20)"/>
</svg>