<svg xmlns="http://www.w3.org/2000/svg" viewBox="0 0 800 1000" width="800" height="1000" role="img">
<defs>
<linearGradient id="bg35" x1="0" y1="0" x2=".6" y2="1">
<stop offset="0" stop-color="#F5E7E8"/><stop offset=".55" stop-color="#E8C8CF"/><stop offset="1" stop-color="#ceacb4"/>
</linearGradient>
<radialGradient id="v36" cx=".5" cy=".42" r=".72">
<stop offset=".55" stop-color="#fff" stop-opacity="0"/><stop offset="1" stop-color="#572B3A" stop-opacity=".16"/>
</radialGradient>
<linearGradient id="g31" x1="0" y1="0" x2="1" y2="0">
<stop offset="0" stop-color="#b7928e"/>
<stop offset=".18" stop-color="#E3B7B0"/>
<stop offset=".42" stop-color="#f2dfdb"/>
<stop offset=".58" stop-color="#E3B7B0"/>
<stop offset="1" stop-color="#a3827e"/>
</linearGradient><linearGradient id="g32" x1="0" y1="0" x2="1" y2="0">
<stop offset="0" stop-color="#b9a492"/>
<stop offset=".18" stop-color="#E6CDB5"/>
<stop offset=".42" stop-color="#f4e9de"/>
<stop offset=".58" stop-color="#E6CDB5"/>
<stop offset="1" stop-color="#a59181"/>
</linearGradient><linearGradient id="g33" x1="0" y1="0" x2="1" y2="0">
<stop offset="0" stop-color="#c2bebc"/>
<stop offset=".18" stop-color="#F2EFEC"/>
<stop offset=".42" stop-color="#f9f8f6"/>
<stop offset=".58" stop-color="#F2EFEC"/>
<stop offset="1" stop-color="#ada8a7"/>
</linearGradient><linearGradient id="g34" x1="0" y1="0" x2="1" y2="0">
<stop offset="0" stop-color="#a37c84"/>
<stop offset=".18" stop-color="#C99AA3"/>
<stop offset=".42" stop-color="#e7d2d6"/>
<stop offset=".58" stop-color="#C99AA3"/>
<stop offset="1" stop-color="#916e75"/>
</linearGradient>
</defs>
<rect width="800" height="1000" fill="url(#bg35)"/>
<circle cx="400" cy="430" r="250" fill="#fff" opacity=".34"/>
<path d="M0 1000 L0 790 Q 400 670 800 790 L800 1000 Z" fill="#E8C8CF" opacity=".45"/>
<g transform="translate(400,545) rotate(-14) scale(1.34)"><ellipse cx="0" cy="178" rx="175" ry="28" fill="#572B3A" opacity=".13"/><rect x="-138" y="-40" width="72" height="200" rx="16" fill="url(#g31)"/>
<rect x="-130" y="-24" width="9" height="150" rx="4.5" fill="#fff" opacity=".4"/>
<rect x="-122" y="-72" width="40" height="36" rx="8" fill="#3F1E2A"/><rect x="-46" y="-22" width="72" height="200" rx="16" fill="url(#g32)"/>
<rect x="-38" y="-6" width="9" height="150" rx="4.5" fill="#fff" opacity=".4"/>
<rect x="-30" y="-54" width="40" height="36" rx="8" fill="#3F1E2A"/><rect x="46" y="-40" width="72" height="200" rx="16" fill="url(#g33)"/>
<rect x="54" y="-24" width="9" height="150" rx="4.5" fill="#fff" opacity=".4"/>
<rect x="62" y="-72" width="40" height="36" rx="8" fill="#3F1E2A"/><rect x="138" y="-22" width="72" height="200" rx="16" fill="url(#g34)"/>
<rect x="146" y="-6" width="9" height="150" rx="4.5" fill="#fff" opacity=".4"/>
<rect x="154" y="-54" width="40" height="36" rx="8" fill="#3F1E2A"/></g>
<circle cx="112" cy="908" r="19" fill="#E3B7B0" stroke="#fff" stroke-width="3"/><circle cx="164" cy="908" r="19" fill="#E6CDB5" stroke="#fff" stroke-width="3"/><circle cx="216" cy="908" r="19" fill="#F2EFEC" stroke="#fff" stroke-width="3"/><circle cx="268" cy="908" r="19" fill="#C99AA3" stroke="#fff" stroke-width="3"/>
<rect width="800" height="1000" fill="url(#v36)"/>
</svg>