<svg xmlns="http://www.w3.org/2000/svg" viewBox="0 0 800 1000" width="800" height="1000" role="img">
<defs>
<linearGradient id="bg39" x1="0" y1="0" x2=".6" y2="1">
<stop offset="0" stop-color="#FAF7F2"/><stop offset=".55" stop-color="#F5E7E8"/><stop offset="1" stop-color="#E8C8CF"/>
</linearGradient>
<radialGradient id="v40" cx=".5" cy=".42" r=".72">
<stop offset=".55" stop-color="#fff" stop-opacity="0"/><stop offset="1" stop-color="#572B3A" stop-opacity=".16"/>
</radialGradient>
<linearGradient id="g37" x1="0" y1="0" x2="1" y2="0">
<stop offset="0" stop-color="#371b25"/>
<stop offset=".18" stop-color="#3F1E2A"/>
<stop offset=".42" stop-color="#a99a9f"/>
<stop offset=".58" stop-color="#3F1E2A"/>
<stop offset="1" stop-color="#331a23"/>
</linearGradient><linearGradient id="g38" x1="0" y1="0" x2="1" y2="0">
<stop offset="0" stop-color="#bba0a6"/>
<stop offset=".18" stop-color="#E8C8CF"/>
<stop offset=".42" stop-color="#f5e6e9"/>
<stop offset=".58" stop-color="#E8C8CF"/>
<stop offset="1" stop-color="#a68d93"/>
</linearGradient>
</defs>
<rect width="800" height="1000" fill="url(#bg39)"/>
<circle cx="400" cy="470" r="300" fill="#fff" opacity=".5"/>
<path d="M0 1000 L0 790 Q 400 670 800 790 L800 1000 Z" fill="#E8C8CF" opacity=".45"/>
<g transform="translate(400,520) rotate(0) scale(1)"><ellipse cx="0" cy="198" rx="140" ry="22.400000000000002" fill="#572B3A" opacity=".13"/><g transform="translate(0,10)"><g transform="translate(0,180) rotate(-34.5) translate(0,-180)">
<rect x="-8" y="-46" width="16" height="226" rx="8" fill="url(#g37)"/>
<rect x="-9" y="-70" width="18" height="26" rx="4" fill="#f087NaN"/>
<path d="M-8 -70 C-7 -96 -3 -118 0 -128 C3 -118 7 -96 8 -70 Z" fill="#6B5348"/>
<rect x="-3" y="-20" width="4" height="150" rx="2" fill="#fff" opacity=".24"/></g><g transform="translate(0,180) rotate(-23) translate(0,-180)">
<rect x="-8" y="-46" width="16" height="226" rx="8" fill="url(#g38)"/>
<rect x="-9" y="-70" width="18" height="26" rx="4" fill="#f087NaN"/>
<path d="M-8 -70 C-7 -96 -3 -118 0 -128 C3 -118 7 -96 8 -70 Z" fill="#9C7F70"/>
<rect x="-3" y="-20" width="4" height="150" rx="2" fill="#fff" opacity=".24"/></g><g transform="translate(0,180) rotate(-11.5) translate(0,-180)">
<rect x="-8" y="-46" width="16" height="226" rx="8" fill="url(#g37)"/>
<rect x="-9" y="-70" width="18" height="26" rx="4" fill="#f087NaN"/>
<path d="M-8 -70 C-7 -96 -3 -118 0 -128 C3 -118 7 -96 8 -70 Z" fill="#6B5348"/>
<rect x="-3" y="-20" width="4" height="150" rx="2" fill="#fff" opacity=".24"/></g><g transform="translate(0,180) rotate(0) translate(0,-180)">
<rect x="-8" y="-46" width="16" height="226" rx="8" fill="url(#g38)"/>
<rect x="-9" y="-70" width="18" height="26" rx="4" fill="#f087NaN"/>
<path d="M-8 -70 C-7 -96 -3 -118 0 -128 C3 -118 7 -96 8 -70 Z" fill="#9C7F70"/>
<rect x="-3" y="-20" width="4" height="150" rx="2" fill="#fff" opacity=".24"/></g><g transform="translate(0,180) rotate(11.5) translate(0,-180)">
<rect x="-8" y="-46" width="16" height="226" rx="8" fill="url(#g37)"/>
<rect x="-9" y="-70" width="18" height="26" rx="4" fill="#f087NaN"/>
<path d="M-8 -70 C-7 -96 -3 -118 0 -128 C3 -118 7 -96 8 -70 Z" fill="#6B5348"/>
<rect x="-3" y="-20" width="4" height="150" rx="2" fill="#fff" opacity=".24"/></g><g transform="translate(0,180) rotate(23) translate(0,-180)">
<rect x="-8" y="-46" width="16" height="226" rx="8" fill="url(#g38)"/>
<rect x="-9" y="-70" width="18" height="26" rx="4" fill="#f087NaN"/>
<path d="M-8 -70 C-7 -96 -3 -118 0 -128 C3 -118 7 -96 8 -70 Z" fill="#9C7F70"/>
<rect x="-3" y="-20" width="4" height="150" rx="2" fill="#fff" opacity=".24"/></g><g transform="translate(0,180) rotate(34.5) translate(0,-180)">
<rect x="-8" y="-46" width="16" height="226" rx="8" fill="url(#g37)"/>
<rect x="-9" y="-70" width="18" height="26" rx="4" fill="#f087NaN"/>
<path d="M-8 -70 C-7 -96 -3 -118 0 -128 C3 -118 7 -96 8 -70 Z" fill="#6B5348"/>
<rect x="-3" y="-20" width="4" height="150" rx="2" fill="#fff" opacity=".24"/></g></g></g>
<rect width="800" height="1000" fill="url(#v40)"/>
</svg>