<svg xmlns="http://www.w3.org/2000/svg" viewBox="0 0 800 1000" width="800" height="1000" role="img">
<defs>
<linearGradient id="bg47" x1="0" y1="0" x2=".6" y2="1">
<stop offset="0" stop-color="#FFFFFF"/><stop offset=".55" stop-color="#F1DFDA"/><stop offset="1" stop-color="#F7EBE8"/>
</linearGradient>
<radialGradient id="v48" cx=".5" cy=".42" r=".72">
<stop offset=".55" stop-color="#fff" stop-opacity="0"/><stop offset="1" stop-color="#2A1215" stop-opacity=".07"/>
</radialGradient>
<filter id="blurWide" x="-60%" y="-200%" width="220%" height="500%"><feGaussianBlur stdDeviation="13"/></filter>
<filter id="blurTight" x="-60%" y="-300%" width="220%" height="700%"><feGaussianBlur stdDeviation="4"/></filter>
<linearGradient id="reflGrad" x1="0" y1="205" x2="0" y2="335" gradientUnits="userSpaceOnUse">
<stop offset="0" stop-color="#fff" stop-opacity=".5"/>
<stop offset="1" stop-color="#fff" stop-opacity="0"/>
</linearGradient>
<mask id="reflFade" maskUnits="userSpaceOnUse" x="-260" y="205" width="520" height="130">
<rect x="-260" y="205" width="520" height="130" fill="url(#reflGrad)"/>
</mask>
<linearGradient id="g45" x1="0" y1="0" x2="1" y2="0">
<stop offset="0" stop-color="#a79e9a"/>
<stop offset=".07" stop-color="#d1c8c3"/>
<stop offset=".26" stop-color="#EFE6DF"/>
<stop offset=".37" stop-color="#fbf8f6"/>
<stop offset=".44" stop-color="#f5f0eb"/>
<stop offset=".64" stop-color="#EFE6DF"/>
<stop offset=".88" stop-color="#afa6a2"/>
<stop offset="1" stop-color="#d5ccc7"/>
</linearGradient><linearGradient id="g46" x1="0" y1="0" x2="1" y2="0">
<stop offset="0" stop-color="#300e11"/>
<stop offset=".07" stop-color="#360e11"/>
<stop offset=".26" stop-color="#3B0D10"/>
<stop offset=".37" stop-color="#c8bbbc"/>
<stop offset=".44" stop-color="#85696b"/>
<stop offset=".64" stop-color="#3B0D10"/>
<stop offset=".88" stop-color="#310e11"/>
<stop offset="1" stop-color="#370d10"/>
</linearGradient>
</defs>
<radialGradient id="halo" cx=".5" cy=".5" r=".5">
<stop offset="0" stop-color="#FDF4F3" stop-opacity=".30"/>
<stop offset=".55" stop-color="#F9E9E7" stop-opacity=".14"/>
<stop offset="1" stop-color="#F9E9E7" stop-opacity="0"/>
</radialGradient>
<linearGradient id="suelo" x1="0" y1="670" x2="0" y2="1000" gradientUnits="userSpaceOnUse">
<stop offset="0" stop-color="#CEB7B0" stop-opacity="0"/>
<stop offset="1" stop-color="#CEB7B0" stop-opacity=".13"/>
</linearGradient>
<circle cx="400" cy="470" r="370" fill="url(#halo)"/>
<path d="M0 1000 L0 790 Q 400 670 800 790 L800 1000 Z" fill="url(#suelo)"/>
<g transform="translate(400,520) rotate(0) scale(1)">
<g mask="url(#reflFade)" opacity=".5">
<g transform="translate(0,412) scale(1,-1)">
<ellipse cx="6.65" cy="207" rx="95" ry="15.200000000000001" fill="#4A372F" opacity=".22" filter="url(#blurWide)"/>
<ellipse cx="0" cy="205" rx="55.099999999999994" ry="6.384" fill="#3A2A24" opacity=".3" filter="url(#blurTight)"/>
<rect x="-58" y="-30" width="116" height="230" rx="22" fill="url(#g45)"/>
<rect x="-38" y="-10" width="13" height="180" rx="6.5" fill="#fff" opacity=".4"/>
<rect x="-20" y="-52" width="40" height="26" fill="#afa6a2"/>
<rect x="-34" y="-190" width="68" height="140" rx="12" fill="url(#g46)"/>
<rect x="-20" y="-174" width="9" height="100" rx="4.5" fill="#fff" opacity=".4"/></g>
</g>
<ellipse cx="6.65" cy="207" rx="95" ry="15.200000000000001" fill="#4A372F" opacity=".22" filter="url(#blurWide)"/>
<ellipse cx="0" cy="205" rx="55.099999999999994" ry="6.384" fill="#3A2A24" opacity=".3" filter="url(#blurTight)"/>
<rect x="-58" y="-30" width="116" height="230" rx="22" fill="url(#g45)"/>
<rect x="-38" y="-10" width="13" height="180" rx="6.5" fill="#fff" opacity=".4"/>
<rect x="-20" y="-52" width="40" height="26" fill="#afa6a2"/>
<rect x="-34" y="-190" width="68" height="140" rx="12" fill="url(#g46)"/>
<rect x="-20" y="-174" width="9" height="100" rx="4.5" fill="#fff" opacity=".4"/>
</g>
</svg>