<svg xmlns="http://www.w3.org/2000/svg" viewBox="0 0 800 1000" width="800" height="1000" role="img">
<defs>
<linearGradient id="bg51" x1="0" y1="0" x2=".6" y2="1">
<stop offset="0" stop-color="#F5E7E8"/><stop offset=".55" stop-color="#E8C8CF"/><stop offset="1" stop-color="#ceacb4"/>
</linearGradient>
<radialGradient id="v52" cx=".5" cy=".42" r=".72">
<stop offset=".55" stop-color="#fff" stop-opacity="0"/><stop offset="1" stop-color="#572B3A" stop-opacity=".16"/>
</radialGradient>
<linearGradient id="g49" x1="0" y1="0" x2="1" y2="0">
<stop offset="0" stop-color="#c0b7b2"/>
<stop offset=".18" stop-color="#EFE6DF"/>
<stop offset=".42" stop-color="#f8f4f1"/>
<stop offset=".58" stop-color="#EFE6DF"/>
<stop offset="1" stop-color="#aba29e"/>
</linearGradient><linearGradient id="g50" x1="0" y1="0" x2="1" y2="0">
<stop offset="0" stop-color="#371b25"/>
<stop offset=".18" stop-color="#3F1E2A"/>
<stop offset=".42" stop-color="#a99a9f"/>
<stop offset=".58" stop-color="#3F1E2A"/>
<stop offset="1" stop-color="#331a23"/>
</linearGradient>
</defs>
<rect width="800" height="1000" fill="url(#bg51)"/>
<circle cx="400" cy="430" r="250" fill="#fff" opacity=".34"/>
<path d="M0 1000 L0 790 Q 400 670 800 790 L800 1000 Z" fill="#E8C8CF" opacity=".45"/>
<g transform="translate(400,545) rotate(-14) scale(1.34)"><ellipse cx="0" cy="205" rx="95" ry="15.200000000000001" fill="#572B3A" opacity=".13"/>
<rect x="-58" y="-30" width="116" height="230" rx="22" fill="url(#g49)"/>
<rect x="-38" y="-10" width="13" height="180" rx="6.5" fill="#fff" opacity=".4"/>
<rect x="-20" y="-52" width="40" height="26" fill="#afa6a2"/>
<rect x="-34" y="-190" width="68" height="140" rx="12" fill="url(#g50)"/>
<rect x="-20" y="-174" width="9" height="100" rx="4.5" fill="#fff" opacity=".4"/></g>
<rect width="800" height="1000" fill="url(#v52)"/>
</svg>