<svg xmlns="http://www.w3.org/2000/svg" viewBox="0 0 1000 1400" width="1000" height="1400" role="img">
<defs>
<linearGradient id="bg163" x1="0" y1="0" x2=".6" y2="1">
<stop offset="0" stop-color="#F5E7E8"/><stop offset=".55" stop-color="#E8C8CF"/><stop offset="1" stop-color="#916a76"/>
</linearGradient>
<radialGradient id="v164" cx=".5" cy=".42" r=".72">
<stop offset=".55" stop-color="#fff" stop-opacity="0"/><stop offset="1" stop-color="#572B3A" stop-opacity=".16"/>
</radialGradient>
</defs>
<rect width="1000" height="1400" fill="url(#bg163)"/>
<path d="M70 1400 L70 560 A430 430 0 0 1 930 560 L930 1400 Z" fill="#fff" opacity=".4"/>
<circle cx="820" cy="210" r="140" fill="#572B3A" opacity=".11"/>
<circle cx="150" cy="1120" r="100" fill="#572B3A" opacity=".07"/>
<g transform="translate(500,728)"><g transform="translate(-278.5714285714286,92.85714285714286) rotate(-7) scale(3.5714285714285716)">
<path d="M-31 62 C-33 -8 -25 -54 0 -60 C25 -54 33 -8 31 62 C21 72 -21 72 -31 62 Z" fill="#572B3A" opacity=".16" transform="translate(6,9)"/>
<path d="M-31 62 C-33 -8 -25 -54 0 -60 C25 -54 33 -8 31 62 C21 72 -21 72 -31 62 Z" fill="#E3C1B3" opacity="1"/>
<ellipse cx="0" cy="56" rx="25" ry="11" fill="#fff" opacity=".3"/><path d="M-31 62 C-33 -8 -25 -54 0 -60 C10 -56 18 -42 23 -22 L-26 30 Z" fill="#fff" opacity=".2"/></g><g transform="translate(0,0) rotate(0) scale(3.5714285714285716)">
<path d="M-31 62 C-33 -8 -25 -54 0 -60 C25 -54 33 -8 31 62 C21 72 -21 72 -31 62 Z" fill="#572B3A" opacity=".16" transform="translate(6,9)"/>
<path d="M-31 62 C-33 -8 -25 -54 0 -60 C25 -54 33 -8 31 62 C21 72 -21 72 -31 62 Z" fill="#D9A5AE" opacity="1"/>
<ellipse cx="0" cy="56" rx="25" ry="11" fill="#fff" opacity=".3"/><path d="M-31 62 C-33 -8 -25 -54 0 -60 C10 -56 18 -42 23 -22 L-26 30 Z" fill="#fff" opacity=".2"/></g><g transform="translate(278.5714285714286,92.85714285714286) rotate(7) scale(3.5714285714285716)">
<path d="M-31 62 C-33 -8 -25 -54 0 -60 C25 -54 33 -8 31 62 C21 72 -21 72 -31 62 Z" fill="#572B3A" opacity=".16" transform="translate(6,9)"/>
<path d="M-31 62 C-33 -8 -25 -54 0 -60 C25 -54 33 -8 31 62 C21 72 -21 72 -31 62 Z" fill="#5E2433" opacity="1"/>
<ellipse cx="0" cy="56" rx="25" ry="11" fill="#fff" opacity=".3"/><path d="M-31 62 C-33 -8 -25 -54 0 -60 C10 -56 18 -42 23 -22 L-26 30 Z" fill="#fff" opacity=".2"/></g></g>
<rect width="1000" height="1400" fill="url(#v164)"/>
</svg>