<svg xmlns="http://www.w3.org/2000/svg" viewBox="0 0 800 800" width="800" height="800" role="img">
<defs>
<linearGradient id="bg159" x1="0" y1="0" x2=".6" y2="1">
<stop offset="0" stop-color="#F5E7E8"/><stop offset=".55" stop-color="#E8C8CF"/><stop offset="1" stop-color="#E8C8CF"/>
</linearGradient>
<radialGradient id="v160" cx=".5" cy=".42" r=".72">
<stop offset=".55" stop-color="#fff" stop-opacity="0"/><stop offset="1" stop-color="#572B3A" stop-opacity=".16"/>
</radialGradient>
<linearGradient id="g158" x1="0" y1="0" x2="1" y2="0">
<stop offset="0" stop-color="#c9c4c1"/>
<stop offset=".18" stop-color="#FAF7F2"/>
<stop offset=".42" stop-color="#fdfbf9"/>
<stop offset=".58" stop-color="#FAF7F2"/>
<stop offset="1" stop-color="#b2adab"/>
</linearGradient>
</defs>
<rect width="800" height="800" fill="url(#bg159)"/>
<path d="M56.00000000000001 800 L56.00000000000001 320 A344 344 0 0 1 744 320 L744 800 Z" fill="#fff" opacity=".4"/>
<circle cx="656" cy="120" r="112.00000000000001" fill="#572B3A" opacity=".11"/>
<circle cx="120" cy="640" r="80" fill="#572B3A" opacity=".07"/>
<g transform="translate(400,400) scale(1.290)"><ellipse cx="0" cy="205" rx="160" ry="25.6" fill="#572B3A" opacity=".13"/>
<rect x="-165" y="-120" width="330" height="290" rx="18" fill="url(#g158)"/>
<rect x="-150" y="-106" width="300" height="262" rx="12" fill="#F5E7E8"/><g transform="translate(-100,-40) rotate(0)">
<path d="M0 -30 L26.1 -15 L26.1 15 L0 30 L-26.1 15 L-26.1 -15 Z" fill="#D9A5AE"/>
<path d="M0 -30 L26.1 -15 L0 0 Z" fill="#fff" opacity=".55"/>
<path d="M0 0 L26.1 15 L0 30 Z" fill="#000" opacity=".12"/></g><g transform="translate(-30,-70) rotate(23)">
<path d="M0 -22 L19.14 -11 L19.14 11 L0 22 L-19.14 11 L-19.14 -11 Z" fill="#E8C8CF"/>
<path d="M0 -22 L19.14 -11 L0 0 Z" fill="#fff" opacity=".55"/>
<path d="M0 0 L19.14 11 L0 22 Z" fill="#000" opacity=".12"/></g><g transform="translate(38,-44) rotate(46)">
<path d="M0 -34 L29.58 -17 L29.58 17 L0 34 L-29.58 17 L-29.58 -17 Z" fill="#C7B8E0"/>
<path d="M0 -34 L29.58 -17 L0 0 Z" fill="#fff" opacity=".55"/>
<path d="M0 0 L29.58 17 L0 34 Z" fill="#000" opacity=".12"/></g><g transform="translate(104,-76) rotate(9)">
<path d="M0 -20 L17.4 -10 L17.4 10 L0 20 L-17.4 10 L-17.4 -10 Z" fill="#F1E6DF"/>
<path d="M0 -20 L17.4 -10 L0 0 Z" fill="#fff" opacity=".55"/>
<path d="M0 0 L17.4 10 L0 20 Z" fill="#000" opacity=".12"/></g><g transform="translate(-116,34) rotate(32)">
<path d="M0 -24 L20.88 -12 L20.88 12 L0 24 L-20.88 12 L-20.88 -12 Z" fill="#9E1F36"/>
<path d="M0 -24 L20.88 -12 L0 0 Z" fill="#fff" opacity=".55"/>
<path d="M0 0 L20.88 12 L0 24 Z" fill="#000" opacity=".12"/></g><g transform="translate(-44,16) rotate(55)">
<path d="M0 -38 L33.06 -19 L33.06 19 L0 38 L-33.06 19 L-33.06 -19 Z" fill="#D4A08E"/>
<path d="M0 -38 L33.06 -19 L0 0 Z" fill="#fff" opacity=".55"/>
<path d="M0 0 L33.06 19 L0 38 Z" fill="#000" opacity=".12"/></g><g transform="translate(36,42) rotate(18)">
<path d="M0 -26 L22.62 -13 L22.62 13 L0 26 L-22.62 13 L-22.62 -13 Z" fill="#D9A5AE"/>
<path d="M0 -26 L22.62 -13 L0 0 Z" fill="#fff" opacity=".55"/>
<path d="M0 0 L22.62 13 L0 26 Z" fill="#000" opacity=".12"/></g><g transform="translate(108,10) rotate(41)">
<path d="M0 -30 L26.1 -15 L26.1 15 L0 30 L-26.1 15 L-26.1 -15 Z" fill="#E8C8CF"/>
<path d="M0 -30 L26.1 -15 L0 0 Z" fill="#fff" opacity=".55"/>
<path d="M0 0 L26.1 15 L0 30 Z" fill="#000" opacity=".12"/></g><g transform="translate(-84,108) rotate(4)">
<path d="M0 -20 L17.4 -10 L17.4 10 L0 20 L-17.4 10 L-17.4 -10 Z" fill="#C7B8E0"/>
<path d="M0 -20 L17.4 -10 L0 0 Z" fill="#fff" opacity=".55"/>
<path d="M0 0 L17.4 10 L0 20 Z" fill="#000" opacity=".12"/></g><g transform="translate(-6,100) rotate(27)">
<path d="M0 -28 L24.36 -14 L24.36 14 L0 28 L-24.36 14 L-24.36 -14 Z" fill="#F1E6DF"/>
<path d="M0 -28 L24.36 -14 L0 0 Z" fill="#fff" opacity=".55"/>
<path d="M0 0 L24.36 14 L0 28 Z" fill="#000" opacity=".12"/></g><g transform="translate(70,116) rotate(50)">
<path d="M0 -22 L19.14 -11 L19.14 11 L0 22 L-19.14 11 L-19.14 -11 Z" fill="#9E1F36"/>
<path d="M0 -22 L19.14 -11 L0 0 Z" fill="#fff" opacity=".55"/>
<path d="M0 0 L19.14 11 L0 22 Z" fill="#000" opacity=".12"/></g><g transform="translate(126,74) rotate(13)">
<path d="M0 -18 L15.66 -9 L15.66 9 L0 18 L-15.66 9 L-15.66 -9 Z" fill="#D4A08E"/>
<path d="M0 -18 L15.66 -9 L0 0 Z" fill="#fff" opacity=".55"/>
<path d="M0 0 L15.66 9 L0 18 Z" fill="#000" opacity=".12"/></g></g>
<rect width="800" height="800" fill="url(#v160)"/>
</svg>